<svg version="1.0" xmlns="http://www.w3.org/2000/svg"
 width="620.000000pt" height="877.000000pt" viewBox="0 0 620.000000 877.000000"
 preserveAspectRatio="xMidYMid meet">

<g transform="translate(0.000000,877.000000) scale(0.100000,-0.100000)"
fill="#000000" stroke="none">
<path d="M0 4385 l0 -4385 3100 0 3100 0 0 4385 0 4385 -3100 0 -3100 0 0
-4385z m1513 1160 c13 -14 30 -39 37 -55 10 -25 9 -34 -10 -68 -39 -69 -102
-81 -160 -32 -31 26 -35 36 -35 76 0 40 4 50 35 75 45 38 97 39 133 4z m-355
-121 c64 -14 169 -60 194 -84 14 -15 32 -46 39 -69 12 -40 11 -47 -10 -86 -32
-60 -89 -72 -166 -35 -48 23 -64 52 -105 182 -28 87 -25 116 8 103 8 -3 26 -8
40 -11z m648 1 c8 -19 -44 -180 -72 -226 -42 -68 -142 -91 -199 -45 -27 22
-30 30 -30 79 0 70 22 103 96 140 45 23 163 63 192 66 4 1 10 -6 13 -14z
m-213 -429 c66 -29 137 -120 137 -176 0 -17 -6 -20 -50 -20 -48 0 -50 1 -70
40 -24 48 -45 60 -103 60 -72 0 -115 -55 -102 -131 8 -47 12 -50 110 -88 84
-33 152 -67 171 -86 28 -27 57 -103 61 -160 4 -56 2 -65 -39 -135 -53 -93 -97
-120 -194 -120 -134 0 -234 82 -251 205 l-6 45 50 0 c55 0 67 -9 77 -56 11
-50 38 -68 111 -72 59 -4 65 -2 96 27 28 27 33 40 37 91 4 55 2 61 -25 89 -18
18 -55 37 -96 50 -129 39 -177 76 -203 154 -48 143 54 295 199 296 32 1 72 -5
90 -13z m640 -207 c76 -25 151 -91 187 -164 21 -42 25 -64 25 -135 0 -105 -24
-159 -103 -231 -61 -56 -124 -79 -213 -79 -59 0 -169 33 -169 51 0 5 -4 9 -10
9 -6 0 -10 -47 -10 -120 l0 -120 -60 0 -60 0 0 395 0 395 60 0 c54 0 60 -2 60
-20 0 -20 1 -20 32 -4 91 47 169 54 261 23z m695 -9 c28 -13 52 -27 52 -31 0
-5 5 -9 10 -9 6 0 10 11 10 25 0 24 3 25 60 25 l60 0 0 -300 0 -300 -60 0
c-58 0 -60 1 -60 26 0 14 -3 24 -7 22 -93 -47 -128 -58 -193 -58 -74 0 -137
19 -179 54 -103 86 -136 150 -136 261 0 70 4 88 32 140 17 33 46 72 64 85 18
14 38 30 45 37 12 12 70 37 109 47 40 10 141 -3 193 -24z"/>
<path d="M1401 5504 c-26 -34 -26 -54 -1 -82 40 -43 111 -19 112 37 2 66 -71
96 -111 45z"/>
<path d="M1140 5374 c0 -11 11 -50 25 -89 30 -85 60 -115 117 -115 l41 0 -47
50 c-42 45 -51 70 -26 70 5 0 27 -18 50 -40 23 -22 46 -40 52 -40 13 0 1 68
-16 95 -11 16 -79 47 -183 83 -8 2 -13 -4 -13 -14z"/>
<path d="M1665 5358 c-97 -37 -112 -50 -121 -105 -8 -54 2 -55 55 -2 26 26 46
39 56 35 21 -8 7 -33 -40 -74 -19 -17 -35 -34 -35 -37 0 -9 57 -6 84 5 29 11
56 59 80 142 18 64 19 68 9 68 -5 -1 -44 -15 -88 -32z"/>
<path d="M2071 4685 c-82 -26 -141 -105 -141 -190 0 -82 51 -160 124 -190 73
-31 191 -7 238 48 80 91 55 258 -47 314 -53 29 -119 36 -174 18z"/>
<path d="M2724 4682 c-28 -10 -58 -25 -66 -33 -85 -88 -89 -220 -8 -299 49
-48 97 -64 170 -57 112 10 180 85 180 199 0 31 -5 69 -11 85 -17 46 -86 101
-141 113 -62 13 -63 13 -124 -8z"/>
</g>
</svg>
